<svg xmlns="http://www.w3.org/2000/svg" width="48" height="48" viewBox="0 0 48 48">
  <g id="Group_1641" data-name="Group 1641" transform="translate(-32 -8)">
    <path id="Path_1151" data-name="Path 1151" d="M12,0H36A12,12,0,0,1,48,12V36A12,12,0,0,1,36,48H12A12,12,0,0,1,0,36V12A12,12,0,0,1,12,0Z" transform="translate(32 8)" fill="#fff"/>
    <g id="Group_1236" data-name="Group 1236" transform="translate(45.836 19)">
      <path id="Path_1150" data-name="Path 1150" d="M142.891,103.845h-12.88v-2.564a2.441,2.441,0,0,1,2.174-2.434c2.34-.257,7.263-1.145,7.263-4.208h1.53c0,3.109-3.777,5.2-8.628,5.729a.914.914,0,0,0-.81.914v1.034h11.35a5.923,5.923,0,0,0,5.917-5.917l-.021-11.036a6,6,0,0,0-5.989-5.99h-1.841V92.879h-3.026a7.733,7.733,0,0,1-7.772-6.782,7.46,7.46,0,0,1,1.919-5.794,7.535,7.535,0,0,1,5.564-2.46v1.528a5.99,5.99,0,0,0-5.961,6.581,6.194,6.194,0,0,0,6.25,5.4h1.5V77.843H142.8a7.526,7.526,0,0,1,7.517,7.517l.023,11.036A7.457,7.457,0,0,1,142.891,103.845Z" transform="translate(-130.011 -77.843)"/>
    </g>
  </g>
</svg>
