<?xml version="1.0" encoding="utf-8"?>
<!-- Generator: Adobe Illustrator 24.1.3, SVG Export Plug-In . SVG Version: 6.00 Build 0)  -->
<svg version="1.1" id="Ebene_1" xmlns="http://www.w3.org/2000/svg" xmlns:xlink="http://www.w3.org/1999/xlink" x="0px" y="0px"
	 viewBox="0 0 64 64" style="enable-background:new 0 0 64 64;" xml:space="preserve">
<g>
	<path d="M44.36,64l-26.39-0.02c0.08-0.02-3.16-3.46-3.16-3.46c5.68-0.98,14.17-7.46,13.72-15.79h6.62c0,5.55-2.52,9.75-5.88,12.8
		h14.97c8.93-0.35,9.89-7.47,9.89-10.52V16.83c0-9.87-7.87-10.37-9.45-10.37h-9.53v33.26H23.34C15.16,39.73,3,34.44,3,19.87
		S15.16,0,23.34,0v6.47c-4.74,0-13.71,2.8-13.71,13.4c0,10.6,8.97,13.4,13.71,13.4h5.2V0h16.16c5.56,0,16.07,3.52,16.07,16.83v30.18
		c0,12.11-8.8,16.71-16.33,16.98L44.36,64z"/>
</g>
</svg>
