<?xml version="1.0" encoding="utf-8"?>
<!-- Generator: Adobe Illustrator 24.1.3, SVG Export Plug-In . SVG Version: 6.00 Build 0)  -->
<svg version="1.1" id="Ebene_1" xmlns="http://www.w3.org/2000/svg" xmlns:xlink="http://www.w3.org/1999/xlink" x="0px" y="0px"
	 viewBox="0 0 64 64" style="enable-background:new 0 0 64 64;" xml:space="preserve">
<style type="text/css">
	.st0{fill:#EAEAEA;}
</style>
<g>
	<path class="st0" d="M44.4,64L18,64c0.1,0-3.2-3.5-3.2-3.5c5.7-1,14.2-7.5,13.7-15.8h6.6c0,5.5-2.5,9.8-5.9,12.8h15
		c8.9-0.3,9.9-7.5,9.9-10.5V16.8c0-9.9-7.9-10.4-9.5-10.4h-9.5v33.3H23.3C15.2,39.7,3,34.4,3,19.9S15.2,0,23.3,0v6.5
		c-4.7,0-13.7,2.8-13.7,13.4s9,13.4,13.7,13.4h5.2V0h16.2c5.6,0,16.1,3.5,16.1,16.8V47C60.8,59.1,52,63.7,44.4,64L44.4,64z"/>
</g>
</svg>
