<svg xmlns="http://www.w3.org/2000/svg" width="1029" height="169" viewBox="0 0 1029 169">
  <text id="CiteDrive_is_for_everyone" data-name="CiteDrive is for everyone" transform="translate(124 131)" fill="#fff" font-size="130" font-family="AntarcticanHeadline-Book, Antarctican Headline"><tspan x="0" y="0">CiteDrive</tspan><tspan y="0" xml:space="preserve" font-family="AntarcticanHeadline-Extralight, Antarctican Headline" font-weight="200"> is for </tspan><tspan y="0">everyone</tspan></text>
  <g id="Gruppe_309" data-name="Gruppe 309" transform="translate(-231.36 -155.336)">
    <path id="Pfad_73" data-name="Pfad 73" d="M292.474,290.28l-39-.03c.125-.027-4.663-5.239-4.663-5.239,8.4-1.485,20.934-11.286,20.266-23.877h9.782a25.828,25.828,0,0,1-8.689,19.364h22.117c13.192-.525,14.618-11.291,14.618-15.9V218.949c0-14.92-11.629-15.676-13.96-15.676H278.864V253.58H261.4c-12.077,0-30.044-8-30.044-30.044s17.967-30.044,30.044-30.044v9.782c-7.008,0-20.262,4.235-20.262,20.262S254.4,243.8,261.4,243.8h7.677V193.491h23.869c8.212,0,23.742,5.321,23.742,25.458V264.6c0,18.308-13,25.276-24.129,25.681Z" fill="#fff"/>
  </g>
</svg>
