<svg xmlns="http://www.w3.org/2000/svg"  viewBox="0 0 322 341"><defs><style>.a{fill:#ffb7b7;}.b{opacity:0.85;}.c{fill:#ff9f9f;}.d{fill:#7967ff;}.e{font-size:22px;font-family:SofiaPro-SemiBold, Sofia Pro;font-weight:600;}.f{font-size:14px;font-family:SofiaPro-Bold, Sofia Pro;font-weight:700;}.g{font-size:13px;font-family:SofiaPro-Regular, Sofia Pro;}</style></defs><g transform="translate(-381 -426)"><rect class="a" width="322" height="341" rx="16" transform="translate(381 426)"/><g class="b" transform="translate(320.173 372.157)"><g transform="translate(130.011 77.843)"><path class="c" d="M275.146,370.843H130.011V341.948a27.507,27.507,0,0,1,24.5-27.429c26.366-2.895,81.848-12.9,81.848-47.42H253.6c0,35.033-42.564,58.542-97.22,64.551a10.294,10.294,0,0,0-9.125,10.3V353.6H275.146a66.742,66.742,0,0,0,66.676-66.677l-.238-124.357a67.559,67.559,0,0,0-67.483-67.5H253.36V247.274h-34.1c-45.038,0-83.5-33.567-87.583-76.424A84.058,84.058,0,0,1,153.3,105.566,84.911,84.911,0,0,1,216,77.843V95.067a67.5,67.5,0,0,0-67.172,74.152c3.262,34.1,34.191,60.813,70.433,60.813h16.875V77.843H274.1a84.805,84.805,0,0,1,84.706,84.706l.257,124.357A84.027,84.027,0,0,1,275.146,370.843Z" transform="translate(-130.011 -77.843)"/></g></g><g transform="translate(0 1)"><rect class="d" width="5" height="146" transform="translate(410 628) rotate(-90)"/><text class="e" transform="translate(432 518)"><tspan x="0" y="0">Let’s .bib </tspan><tspan x="0" y="26">your first project!</tspan></text><rect class="d" width="16" height="47" transform="translate(410 502)"/><text class="f" transform="translate(410 571)"><tspan x="0" y="12">Looking for a BibTeX-based reference </tspan><tspan x="0" y="30">manager that connects seamlessly with </tspan><tspan x="0" y="48">Overleaf and RStudio? </tspan></text><text class="g" transform="translate(410 645)"><tspan x="0" y="12">CiteDrive lets you manage your references </tspan><tspan x="0" y="29">directly in your next LaTeX, Quarto, or R </tspan><tspan x="0" y="46">Markdown document!</tspan></text></g></g></svg>